<?xml version="1.0" encoding="utf-8"?>
<!-- Generator: Adobe Illustrator 20.1.0, SVG Export Plug-In . SVG Version: 6.00 Build 0)  -->
<svg version="1.1" id="Слой_1" xmlns="http://www.w3.org/2000/svg" xmlns:xlink="http://www.w3.org/1999/xlink" x="0px" y="0px"
	 width="2197px" height="500.7px" viewBox="0 0 2197 500.7" enable-background="new 0 0 2197 500.7" xml:space="preserve">
<path fill="#0BCF6B" d="M31.8,0H0v269.2h70.8V131.3l70.5,63.9l70.1-64.3v138.1h70.8V0h-31.8L141.4,99.8L31.8,0L31.8,0z M336.5,268.8
	h166.8v-57.7H407v-49.4h85.2v-59.4H407V58.3h96.3V0H336.5V268.8L336.5,268.8z M553.8,268.8h99.5c74.1,0,134.3-60.3,134.3-134.4
	C787.6,60.2,727.5,0,653.3,0h-99.5V268.8L553.8,268.8z M624,72.1h29.7c35.1,0,63.7,28.7,63.7,63.4c0,35.2-28.7,63.7-63.7,63.7H624
	V72.1L624,72.1z M835.9,268.5h70.5V0h-70.5V268.5L835.9,268.5z M1013.1,269.2l16.1-35.2h110l16.5,35.2h70.5L1099.7,0h-31.8
	L942.6,269.2H1013.1L1013.1,269.2z M1084.3,115.1l27.2,59.3h-54.7L1084.3,115.1L1084.3,115.1z M1414.1,82.3
	c0-45.8-36.9-82.3-82.7-82.3c-45.8,0-82.3,36.9-82.3,82.7c0,46.2,36.5,82.7,82.3,82.7c11.1,0,20.4,9.3,20.4,20.4
	c0,11.1-9.3,20.1-20.4,20.1c-11,0-20.1-8.9-20.1-20.4h-62.6c0,47.2,36.9,83.4,82.7,83.4c45.8,0,82.7-36.5,82.7-82.3
	c0-19.7-6.5-37.6-17.9-51.9c-15-19.4-38.6-31.8-64.8-31.8c-11,0-20.1-9.1-20.1-20.4c0-11,8.9-20.4,20.1-20.4s20.4,9.3,20.4,20.6
	L1414.1,82.3L1414.1,82.3z M1455.2,134.9c0,74.5,59.8,134.3,133.9,134.3s134.3-59.8,134.3-134.3C1723.3,60.5,1663.2,0,1589.1,0
	S1455.2,60.5,1455.2,134.9L1455.2,134.9z M1653.2,134.6c0,35.3-28.7,64.5-64.1,64.5c-35.1,0-63.7-29.2-63.7-64.5
	c0-35.7,28.7-64.5,63.7-64.5C1624.6,70.1,1653.2,98.9,1653.2,134.6L1653.2,134.6z M1772.4,268.8h70.5v-107h86.2V102h-86.2V58h97.7V0
	h-168.2V268.8L1772.4,268.8z M1985.4,70.1h69.8v198.6h70.5V70.1h71.2V0h-211.6V70.1L1985.4,70.1z"/>
<path fill="#FFFFFF" d="M37.9,421.2l2.5,17.2l3.6-15.5l25.8-91.2h14.6l25.2,91.2l3.5,15.8l2.8-17.5l20.3-89.4h17.3L122,462.4h-15.7
	l-26.9-95.3l-2.1-9.9l-2,9.9l-27.9,95.3H31.7L0.1,331.8h17.2L37.9,421.2L37.9,421.2z M207.7,464.3c-13.2,0-23.8-4.4-32.1-13
	c-8.2-8.7-12.4-20.2-12.4-34.7v-3c0-9.6,1.8-18.2,5.5-25.7c3.6-7.6,8.8-13.5,15.4-17.7s13.8-6.4,21.5-6.4c12.7,0,22.4,4.2,29.4,12.5
	c7,8.3,10.5,20.3,10.5,35.8v6.9h-65.8c0.2,9.5,3,17.3,8.4,23.1c5.4,5.9,12.2,8.8,20.5,8.8c5.9,0,10.8-1.2,14.9-3.5
	c4.1-2.4,7.6-5.6,10.6-9.4l10.1,7.9C236.1,458,223.9,464.3,207.7,464.3L207.7,464.3z M205.6,377.1c-6.7,0-12.3,2.4-16.9,7.4
	c-4.6,4.9-7.4,11.8-8.4,20.6h48.6v-1.2c-0.5-8.5-2.7-15-6.8-19.7C218,379.4,212.5,377.1,205.6,377.1L205.6,377.1z M346.9,415
	c0,14.9-3.4,26.8-10.2,35.8c-6.8,9-16,13.5-27.5,13.5c-12.3,0-21.8-4.4-28.5-13.1l-0.8,11.1h-15.3V324.5h16.6v51.4
	c6.7-8.3,15.9-12.5,27.7-12.5c11.8,0,21.1,4.5,27.8,13.4c6.7,8.9,10.1,21.1,10.1,36.6L346.9,415L346.9,415z M330.3,413.1
	c0-11.4-2.2-20.1-6.6-26.1c-4.4-6.2-10.6-9.2-18.9-9.2c-10.9,0-18.9,5.1-23.6,15.2v42c5.1,10.1,13,15.2,23.8,15.2
	c8,0,14.2-3,18.5-9.2C328.1,434.8,330.3,425.5,330.3,413.1L330.3,413.1z M454.3,404.2c-14.8-4.3-25.5-9.5-32.2-15.7
	c-6.8-6.2-10.1-13.9-10.1-22.9c0-10.3,4.2-18.9,12.4-25.5c8.2-6.8,19-10.1,32-10.1c9,0,17,1.7,24,5.2c7.1,3.4,12.5,8.2,16.3,14.4
	c3.9,6.1,5.8,12.8,5.8,20h-17.3c0-7.9-2.5-14.1-7.5-18.6c-5.1-4.5-12.2-6.8-21.3-6.8c-8.5,0-15.1,1.8-19.9,5.6
	c-4.8,3.7-7.1,8.9-7.1,15.6c0,5.4,2.2,9.8,6.8,13.6c4.5,3.6,12.2,7.1,23.1,10.1c10.8,3,19.4,6.4,25.4,10.1c6.1,3.6,10.6,8,13.6,12.9
	c2.9,4.9,4.5,10.6,4.5,17.3c0,10.6-4.2,19.1-12.4,25.4c-8.3,6.4-19.3,9.5-33.1,9.5c-9,0-17.3-1.7-25.1-5.2
	c-7.7-3.4-13.8-8.2-17.9-14.2c-4.3-6-6.3-12.8-6.3-20.4h17.3c0,7.9,2.9,14.1,8.7,18.6c5.8,4.6,13.6,6.9,23.4,6.9
	c9.1,0,16-1.8,20.9-5.6c4.9-3.7,7.3-8.8,7.3-15.1c0-6.4-2.2-11.4-6.7-14.9C474.3,411.1,466.2,407.6,454.3,404.2L454.3,404.2z
	 M518,413c0-9.5,1.8-18,5.6-25.6c3.7-7.6,8.9-13.5,15.6-17.6c6.7-4.2,14.3-6.2,22.8-6.2c13.3,0,23.9,4.6,32.1,13.7
	c8.1,9.1,12.3,21.4,12.3,36.6v1.2c0,9.4-1.8,17.9-5.5,25.4c-3.6,7.5-8.8,13.4-15.5,17.5c-6.7,4.2-14.5,6.3-23.2,6.3
	c-13.2,0-23.8-4.6-32-13.7c-8.2-9.1-12.3-21.3-12.3-36.4L518,413L518,413z M534.6,414.9c0,10.7,2.4,19.5,7.5,25.9
	c5,6.5,11.7,9.7,20.1,9.7s15.1-3.3,20.1-9.9c5-6.6,7.4-15.9,7.4-27.8c0-10.6-2.5-19.3-7.6-25.8c-5.1-6.6-11.8-9.9-20.2-9.9
	c-8.2,0-14.8,3.2-19.9,9.7C537.1,393.4,534.6,402.8,534.6,414.9L534.6,414.9z M635.3,462.4v-84.2H620v-12.9h15.3v-9.9
	c0-10.4,2.8-18.4,8.3-24.1c5.6-5.7,13.4-8.5,23.6-8.5c3.9,0,7.6,0.5,11.4,1.5l-0.9,13.4c-2.8-0.5-5.8-0.8-9-0.8
	c-5.4,0-9.5,1.5-12.5,4.8c-2.9,3.1-4.5,7.7-4.5,13.6v10.2h20.8v12.9h-20.8v84.2h-16.4L635.3,462.4L635.3,462.4z M713.6,341.8v23.5
	h18.1v12.9h-18.1v60.2c0,3.9,0.8,6.8,2.4,8.7c1.6,1.9,4.4,2.9,8.2,2.9c1.9,0,4.6-0.4,7.9-1.1v13.5c-4.4,1.1-8.6,1.8-12.8,1.8
	c-7.4,0-13-2.2-16.8-6.7c-3.7-4.5-5.7-10.8-5.7-19.1v-60.2h-17.7v-12.9h17.7v-23.5L713.6,341.8L713.6,341.8z M836.9,439.5l18.6-74.2
	h16.6l-28.3,97.1h-13.5l-23.6-73.6l-23,73.6h-13.5l-28.2-97.1h16.5l19.2,72.7l22.6-72.7h13.4L836.9,439.5L836.9,439.5z M949.1,462.4
	c-0.9-1.9-1.7-5.3-2.3-10.2c-7.7,8-16.9,12.1-27.7,12.1c-9.6,0-17.4-2.7-23.5-8.1c-6.1-5.5-9.2-12.3-9.2-20.6
	c0-10.1,3.9-17.9,11.6-23.5c7.7-5.6,18.5-8.4,32.4-8.4h16.1v-7.6c0-5.8-1.7-10.4-5.2-13.9c-3.4-3.4-8.6-5.2-15.3-5.2
	c-6,0-10.9,1.5-14.9,4.5c-4.1,3-6,6.6-6,10.8h-16.7c0-4.9,1.7-9.5,5.2-14.1c3.4-4.5,8.1-8.1,14-10.7c5.9-2.6,12.4-4,19.5-4
	c11.1,0,20,2.7,26.2,8.4c6.4,5.6,9.6,13.3,9.8,23.1v44.7c0,8.9,1.2,16,3.4,21.3v1.4L949.1,462.4L949.1,462.4z M921.5,450.1
	c5.2,0,10.1-1.3,14.8-4.1c4.7-2.7,8.1-6.3,10.1-10.5v-20.1h-13c-20.4,0-30.5,6-30.5,18c0,5.3,1.7,9.3,5.2,12.3
	C911.6,448.7,916.1,450.1,921.5,450.1L921.5,450.1z M1036,380.2c-2.5-0.4-5.3-0.6-8.1-0.6c-10.9,0-18.2,4.7-22.2,13.9v69H989v-97.1
	h16.1l0.3,11.1c5.5-8.7,13.2-13,23.1-13c3.2,0,5.7,0.4,7.4,1.2L1036,380.2L1036,380.2z M1089.9,464.3c-13.2,0-23.8-4.4-32.1-13
	c-8.2-8.7-12.4-20.2-12.4-34.7v-3c0-9.6,1.8-18.2,5.5-25.7c3.6-7.6,8.8-13.5,15.4-17.7s13.8-6.4,21.5-6.4c12.7,0,22.4,4.2,29.4,12.5
	c7,8.3,10.5,20.3,10.5,35.8v6.9h-65.8c0.2,9.5,3,17.3,8.4,23.1c5.4,5.9,12.2,8.8,20.5,8.8c5.9,0,10.8-1.2,14.9-3.5
	c4.1-2.4,7.6-5.6,10.6-9.4l10.1,7.9C1118.4,458,1106.2,464.3,1089.9,464.3L1089.9,464.3z M1087.9,377.1c-6.7,0-12.3,2.4-16.9,7.4
	c-4.6,4.9-7.4,11.8-8.4,20.6h48.6v-1.2c-0.5-8.5-2.7-15-6.8-19.7C1100.3,379.4,1094.8,377.1,1087.9,377.1L1087.9,377.1z M1269,402.1
	h-56.7v46.1h65.8v14.2h-83V331.8h82.1V346h-64.9v42.1h56.7V402.1L1269,402.1z M1312.6,365.4l0.5,12.2c7.4-9.3,17.1-14,29.1-14
	c20.6,0,30.9,11.6,31,34.8v64.2h-16.5v-64.3c-0.1-7-1.6-12.2-4.8-15.5c-3.1-3.3-8-5.1-14.7-5.1c-5.4,0-10.1,1.4-14.2,4.3
	c-4.1,2.8-7.2,6.7-9.5,11.4v69.1h-16.6v-97.1L1312.6,365.4L1312.6,365.4z M1394.4,413.1c0-15.2,3.4-27.2,10.5-36.2
	c7-8.9,16.2-13.4,27.8-13.4c11.9,0,21.1,4.2,27.8,12.6l0.8-10.7h15.2v94.8c0,12.6-3.7,22.5-11.1,29.7c-7.4,7.2-17.4,10.8-30,10.8
	c-7,0-13.9-1.5-20.6-4.5c-6.7-3-11.8-7.1-15.3-12.3l8.6-9.9c7.1,8.7,15.8,13.1,26.1,13.1c8.1,0,14.4-2.2,19-6.8
	c4.5-4.6,6.8-10.9,6.8-19.2v-8.3c-6.7,7.7-15.7,11.5-27.2,11.5c-11.4,0-20.6-4.6-27.6-13.7C1397.9,441.4,1394.4,428.9,1394.4,413.1
	L1394.4,413.1z M1411.1,415c0,10.9,2.2,19.6,6.7,25.7c4.5,6.3,10.7,9.3,18.9,9.3c10.4,0,18.1-4.8,23.1-14.3v-44.3
	c-5.1-9.2-12.7-13.9-22.9-13.9c-8.1,0-14.4,3.1-19,9.4C1413.4,393.4,1411.1,402.7,1411.1,415L1411.1,415z M1519.5,462.4h-16.6v-97.1
	h16.6V462.4L1519.5,462.4z M1501.6,339.6c0-2.7,0.8-5,2.4-6.9c1.6-1.8,4.2-2.7,7.3-2.7c3.2,0,5.7,0.9,7.4,2.7
	c1.7,1.8,2.5,4.2,2.5,6.9s-0.8,5-2.5,6.8c-1.6,1.8-4.2,2.7-7.4,2.7s-5.7-0.9-7.3-2.7C1502.4,344.6,1501.6,342.2,1501.6,339.6
	L1501.6,339.6z M1561.8,365.4l0.5,12.2c7.4-9.3,17.1-14,29.1-14c20.6,0,30.9,11.6,31.1,34.8v64.2h-16.6v-64.3
	c-0.1-7-1.6-12.2-4.9-15.5c-3.1-3.3-8-5.1-14.7-5.1c-5.4,0-10.1,1.4-14.2,4.3c-4.1,2.8-7.2,6.7-9.5,11.4v69.1h-16.6v-97.1
	L1561.8,365.4L1561.8,365.4z M1687.8,464.3c-13.2,0-23.8-4.4-32.1-13c-8.2-8.7-12.4-20.2-12.4-34.7v-3c0-9.6,1.8-18.2,5.5-25.7
	c3.6-7.6,8.8-13.5,15.4-17.7c6.6-4.3,13.8-6.4,21.5-6.4c12.7,0,22.4,4.2,29.5,12.5c7,8.3,10.5,20.3,10.5,35.8v6.9H1660
	c0.2,9.5,3,17.3,8.4,23.1c5.4,5.9,12.2,8.8,20.5,8.8c5.9,0,10.8-1.2,14.9-3.5c4.1-2.4,7.6-5.6,10.7-9.4l10.1,7.9
	C1716.3,458,1704,464.3,1687.8,464.3L1687.8,464.3z M1685.7,377.1c-6.7,0-12.4,2.4-16.9,7.4c-4.6,4.9-7.4,11.8-8.4,20.6h48.6v-1.2
	c-0.5-8.5-2.7-15-6.8-19.7C1698.2,379.4,1692.7,377.1,1685.7,377.1L1685.7,377.1z M1785.1,464.3c-13.2,0-23.9-4.4-32.1-13
	c-8.2-8.7-12.4-20.2-12.4-34.7v-3c0-9.6,1.8-18.2,5.5-25.7c3.6-7.6,8.8-13.5,15.4-17.7c6.6-4.3,13.8-6.4,21.5-6.4
	c12.7,0,22.4,4.2,29.5,12.5c7,8.3,10.5,20.3,10.5,35.8v6.9h-65.8c0.2,9.5,3,17.3,8.4,23.1c5.4,5.9,12.2,8.8,20.5,8.8
	c5.9,0,10.8-1.2,14.9-3.5c4.1-2.4,7.6-5.6,10.6-9.4l10.1,7.9C1813.6,458,1801.4,464.3,1785.1,464.3L1785.1,464.3z M1783.1,377.1
	c-6.7,0-12.3,2.4-16.9,7.4c-4.6,4.9-7.4,11.8-8.4,20.6h48.6v-1.2c-0.5-8.5-2.7-15-6.8-19.7C1795.6,379.4,1790,377.1,1783.1,377.1
	L1783.1,377.1z M1889.1,380.2c-2.5-0.4-5.3-0.6-8.1-0.6c-10.9,0-18.2,4.7-22.2,13.9v69h-16.6v-97.1h16.1l0.3,11.1
	c5.5-8.7,13.2-13,23.2-13c3.2,0,5.7,0.4,7.4,1.2L1889.1,380.2L1889.1,380.2z M1922.5,462.4h-16.6v-97.1h16.6V462.4L1922.5,462.4z
	 M1904.5,339.6c0-2.7,0.8-5,2.4-6.9c1.6-1.8,4.2-2.7,7.3-2.7c3.2,0,5.7,0.9,7.4,2.7s2.5,4.2,2.5,6.9s-0.8,5-2.5,6.8
	c-1.6,1.8-4.2,2.7-7.4,2.7s-5.7-0.9-7.3-2.7C1905.3,344.6,1904.5,342.2,1904.5,339.6L1904.5,339.6z M1964.7,365.4l0.5,12.2
	c7.4-9.3,17.1-14,29.1-14c20.5,0,30.9,11.6,31,34.8v64.2h-16.6v-64.3c-0.1-7-1.6-12.2-4.8-15.5c-3.1-3.3-8-5.1-14.7-5.1
	c-5.4,0-10.1,1.4-14.2,4.3c-4.1,2.8-7.2,6.7-9.5,11.4v69.1h-16.6v-97.1L1964.7,365.4L1964.7,365.4z M2046.5,413.1
	c0-15.2,3.4-27.2,10.5-36.2c7-8.9,16.2-13.4,27.8-13.4c11.9,0,21.1,4.2,27.8,12.6l0.8-10.7h15.2v94.8c0,12.6-3.7,22.5-11.1,29.7
	s-17.4,10.8-30,10.8c-7,0-13.9-1.5-20.6-4.5c-6.7-3-11.8-7.1-15.4-12.3l8.6-9.9c7.1,8.7,15.8,13.1,26,13.1c8.1,0,14.4-2.2,19-6.8
	c4.5-4.6,6.8-10.9,6.8-19.2v-8.3c-6.7,7.7-15.7,11.5-27.2,11.5c-11.4,0-20.6-4.6-27.6-13.7C2050,441.4,2046.5,428.9,2046.5,413.1
	L2046.5,413.1z M2063.2,415c0,10.9,2.2,19.6,6.7,25.7c4.5,6.3,10.7,9.3,18.9,9.3c10.4,0,18.1-4.8,23.1-14.3v-44.3
	c-5.1-9.2-12.7-13.9-22.9-13.9c-8.1,0-14.4,3.1-19,9.4C2065.5,393.4,2063.2,402.7,2063.2,415L2063.2,415z"/>
</svg>
