<?xml version="1.0" encoding="utf-8"?>
<!-- Generator: Adobe Illustrator 20.1.0, SVG Export Plug-In . SVG Version: 6.00 Build 0)  -->
<svg version="1.1" id="Слой_1" xmlns="http://www.w3.org/2000/svg" xmlns:xlink="http://www.w3.org/1999/xlink" x="0px" y="0px"
	 width="2195px" height="500.2px" viewBox="0 0 2195 500.2" enable-background="new 0 0 2195 500.2" xml:space="preserve">
<g>
	<defs>
		<rect id="SVGID_1_" y="0" width="2195" height="500.2"/>
	</defs>
	<clipPath id="SVGID_2_">
		<use xlink:href="#SVGID_1_"  overflow="visible"/>
	</clipPath>
	<path clip-path="url(#SVGID_2_)" fill="#44B97B" d="M31.8,0H0v268.9h70.8V131.2l70.5,63.9l70.1-64.2v138h70.8V0h-31.8L141.3,99.7
		L31.8,0z M336.2,268.5h166.7v-57.6h-96.2v-49.3h85.2v-59.3h-85.2v-44h96.2V0H336.2V268.5z M553.3,268.5h99.4
		c74,0,134.2-60.2,134.2-134.3C786.9,60.1,726.8,0,652.7,0h-99.4V268.5z M623.4,72h29.7c35,0,63.7,28.7,63.7,63.4
		c0,35.1-28.7,63.7-63.7,63.7h-29.7V72z M835.1,268.2h70.5V0h-70.5V268.2z M1012.1,268.9l16.1-35.1h109.9l16.5,35.1h70.5L1098.7,0
		h-31.8L941.8,268.9H1012.1z M1083.3,115l27.1,59.2h-54.7L1083.3,115z M1412.8,82.2c0-45.8-36.9-82.2-82.6-82.2
		c-45.8,0-82.2,36.9-82.2,82.6c0,46.2,36.5,82.6,82.2,82.6c11.1,0,20.4,9.3,20.4,20.4c0,11.1-9.3,20-20.4,20c-11,0-20-8.9-20-20.4
		h-62.6c0,47.2,36.9,83.3,82.6,83.3c45.8,0,82.6-36.5,82.6-82.2c0-19.6-6.5-37.6-17.9-51.8c-15-19.3-38.6-31.8-64.7-31.8
		c-11,0-20-9.1-20-20.4c0-11,8.9-20.4,20-20.4c11.1,0,20.4,9.3,20.4,20.6L1412.8,82.2z M1453.9,134.8c0,74.4,59.7,134.2,133.8,134.2
		s134.2-59.7,134.2-134.2C1721.7,60.4,1661.7,0,1587.7,0S1453.9,60.4,1453.9,134.8 M1651.7,134.5c0,35.2-28.7,64.4-64,64.4
		c-35,0-63.7-29.2-63.7-64.4c0-35.6,28.7-64.4,63.7-64.4C1623.1,70.1,1651.7,98.8,1651.7,134.5 M1770.7,268.5h70.5V161.6h86.2v-59.7
		h-86.2V57.9h97.6V0h-168.1V268.5z M1983.6,70.1h69.8v198.5h70.5V70.1h71.2V0h-211.4V70.1z"/>
	<path clip-path="url(#SVGID_2_)" d="M37.9,420.8l2.5,17.2l3.6-15.5l25.8-91.1h14.6l25.2,91.1l3.5,15.8l2.8-17.5l20.3-89.3h17.3
		L121.9,462h-15.7l-26.8-95.2l-2.1-9.9l-2,9.9L47.4,462H31.7L0.1,331.5h17.2L37.9,420.8z M207.5,463.8c-13.2,0-23.8-4.4-32.1-13
		c-8.2-8.7-12.4-20.2-12.4-34.6v-3c0-9.6,1.8-18.2,5.5-25.7c3.6-7.6,8.8-13.5,15.4-17.7c6.6-4.3,13.8-6.4,21.5-6.4
		c12.7,0,22.4,4.2,29.4,12.5c7,8.3,10.5,20.3,10.5,35.7v6.9h-65.7c0.2,9.5,3,17.3,8.4,23.1c5.4,5.9,12.2,8.8,20.5,8.8
		c5.9,0,10.8-1.2,14.9-3.5c4.1-2.4,7.6-5.6,10.6-9.4l10.1,7.9C235.9,457.6,223.7,463.8,207.5,463.8 M205.4,376.8
		c-6.7,0-12.3,2.4-16.9,7.4c-4.6,4.9-7.4,11.7-8.4,20.6h48.6v-1.2c-0.5-8.5-2.7-15-6.8-19.6C217.8,379.1,212.3,376.8,205.4,376.8
		 M346.6,414.6c0,14.9-3.4,26.7-10.2,35.7c-6.8,9-16,13.5-27.4,13.5c-12.3,0-21.8-4.4-28.5-13.1l-0.8,11.1h-15.3V324.2H281v51.3
		c6.7-8.3,15.9-12.5,27.6-12.5s21.1,4.5,27.7,13.4c6.7,8.9,10.1,21.1,10.1,36.6L346.6,414.6z M330,412.7c0-11.3-2.2-20-6.6-26.1
		c-4.4-6.2-10.6-9.2-18.8-9.2c-10.9,0-18.8,5.1-23.6,15.2v41.9c5.1,10.1,13,15.2,23.8,15.2c8,0,14.2-3,18.5-9.2
		C327.8,434.4,330,425.1,330,412.7 M453.9,403.8c-14.8-4.3-25.5-9.5-32.2-15.7c-6.8-6.2-10.1-13.9-10.1-22.9
		c0-10.3,4.2-18.8,12.4-25.5c8.2-6.8,18.9-10.1,32-10.1c9,0,17,1.7,24,5.2c7.1,3.4,12.5,8.2,16.3,14.4c3.8,6.1,5.8,12.8,5.8,19.9
		h-17.3c0-7.9-2.5-14.1-7.5-18.6c-5.1-4.5-12.2-6.8-21.3-6.8c-8.5,0-15.1,1.8-19.8,5.6c-4.8,3.7-7.1,8.9-7.1,15.6
		c0,5.4,2.2,9.8,6.8,13.6c4.5,3.6,12.2,7.1,23.1,10.1c10.8,3,19.3,6.4,25.4,10.1c6.1,3.6,10.6,8,13.6,12.9
		c2.9,4.9,4.5,10.6,4.5,17.3c0,10.6-4.2,19-12.4,25.4c-8.3,6.4-19.2,9.5-33.1,9.5c-9,0-17.3-1.7-25.1-5.2
		c-7.7-3.4-13.8-8.2-17.9-14.2c-4.3-6-6.3-12.8-6.3-20.4h17.3c0,7.9,2.9,14.1,8.7,18.6c5.8,4.6,13.6,6.9,23.4,6.9
		c9.1,0,16-1.8,20.9-5.6c4.9-3.7,7.3-8.8,7.3-15.1c0-6.4-2.2-11.3-6.7-14.9C473.9,410.7,465.8,407.2,453.9,403.8 M517.5,412.6
		c0-9.5,1.8-18,5.6-25.6c3.7-7.6,8.9-13.5,15.6-17.6c6.7-4.2,14.3-6.2,22.8-6.2c13.3,0,23.9,4.6,32.1,13.7
		c8.1,9.1,12.3,21.4,12.3,36.6v1.2c0,9.4-1.8,17.9-5.5,25.4c-3.6,7.5-8.8,13.4-15.5,17.5c-6.7,4.2-14.5,6.3-23.2,6.3
		c-13.2,0-23.8-4.6-32-13.7c-8.2-9.1-12.3-21.3-12.3-36.4L517.5,412.6z M534.1,414.5c0,10.7,2.4,19.4,7.5,25.9
		c5,6.5,11.6,9.7,20,9.7c8.4,0,15.1-3.3,20-9.9c5-6.6,7.4-15.9,7.4-27.7c0-10.6-2.5-19.2-7.6-25.8c-5.1-6.6-11.7-9.9-20.1-9.9
		c-8.2,0-14.8,3.2-19.8,9.7C536.6,393.1,534.1,402.4,534.1,414.5 M634.8,462v-84.1h-15.3V365h15.3v-9.9c0-10.4,2.8-18.4,8.3-24.1
		c5.6-5.7,13.4-8.5,23.6-8.5c3.8,0,7.6,0.5,11.3,1.5l-0.9,13.4c-2.8-0.5-5.8-0.8-9-0.8c-5.4,0-9.5,1.5-12.5,4.8
		c-2.9,3.1-4.5,7.7-4.5,13.6v10.2h20.8V378h-20.8v84.1h-16.4V462z M712.9,341.5V365h18.1v12.9h-18.1V438c0,3.8,0.8,6.8,2.4,8.7
		c1.6,1.9,4.4,2.9,8.2,2.9c1.9,0,4.6-0.4,7.9-1.1V462c-4.4,1.1-8.6,1.8-12.8,1.8c-7.4,0-13-2.2-16.8-6.7c-3.7-4.5-5.7-10.8-5.7-19
		V378h-17.7v-12.9h17.7v-23.5L712.9,341.5z M836.2,439.1l18.6-74.1h16.6l-28.3,97h-13.5l-23.6-73.5l-23,73.5h-13.5l-28.1-97H758
		l19.1,72.6l22.6-72.6h13.4L836.2,439.1z M948.3,462c-0.9-1.9-1.7-5.3-2.3-10.2c-7.7,8-16.9,12-27.6,12c-9.6,0-17.4-2.7-23.5-8.1
		c-6.1-5.5-9.2-12.3-9.2-20.6c0-10.1,3.8-17.9,11.5-23.5c7.7-5.6,18.5-8.4,32.4-8.4h16.1v-7.6c0-5.8-1.7-10.4-5.2-13.9
		c-3.4-3.4-8.6-5.2-15.3-5.2c-6,0-10.9,1.5-14.9,4.5c-4.1,3-6,6.6-6,10.8h-16.7c0-4.9,1.7-9.5,5.2-14.1c3.4-4.5,8.1-8.1,14-10.7
		c5.9-2.6,12.4-3.9,19.4-3.9c11.1,0,19.9,2.7,26.2,8.4c6.4,5.6,9.6,13.3,9.8,23.1v44.7c0,8.9,1.2,16,3.4,21.3v1.4H948.3z
		 M920.7,449.7c5.2,0,10.1-1.3,14.8-4.1c4.7-2.7,8.1-6.3,10.1-10.5v-20h-13c-20.4,0-30.5,6-30.5,18c0,5.3,1.7,9.3,5.2,12.3
		C910.8,448.3,915.2,449.7,920.7,449.7 M1035,379.8c-2.5-0.4-5.3-0.6-8.1-0.6c-10.9,0-18.2,4.7-22.2,13.9v69h-16.6v-97h16.1
		l0.3,11.1c5.5-8.7,13.2-13,23.1-13c3.2,0,5.7,0.4,7.4,1.2V379.8z M1088.9,463.8c-13.2,0-23.8-4.4-32.1-13
		c-8.2-8.7-12.4-20.2-12.4-34.6v-3c0-9.6,1.8-18.2,5.5-25.7c3.6-7.6,8.8-13.5,15.4-17.7c6.6-4.3,13.8-6.4,21.5-6.4
		c12.7,0,22.4,4.2,29.4,12.5c7,8.3,10.5,20.3,10.5,35.7v6.9h-65.7c0.2,9.5,3,17.3,8.4,23.1c5.4,5.9,12.2,8.8,20.5,8.8
		c5.9,0,10.8-1.2,14.9-3.5c4.1-2.4,7.6-5.6,10.6-9.4l10.1,7.9C1117.3,457.6,1105.2,463.8,1088.9,463.8 M1086.9,376.8
		c-6.7,0-12.3,2.4-16.9,7.4c-4.6,4.9-7.4,11.7-8.4,20.6h48.6v-1.2c-0.5-8.5-2.7-15-6.8-19.6C1099.3,379.1,1093.8,376.8,1086.9,376.8
		 M1267.8,401.8h-56.6v46.1h65.7V462H1194V331.5h82v14.2h-64.8v42h56.6V401.8z M1311.5,365l0.5,12.2c7.4-9.3,17.1-14,29.1-14
		c20.6,0,30.9,11.5,31,34.7V462h-16.5v-64.2c-0.1-7-1.6-12.2-4.8-15.5c-3.1-3.3-8-5.1-14.7-5.1c-5.4,0-10.1,1.4-14.2,4.3
		c-4.1,2.8-7.2,6.7-9.5,11.3v69.1h-16.6v-97L1311.5,365z M1393.2,412.7c0-15.2,3.4-27.1,10.5-36.1c7-8.9,16.2-13.4,27.7-13.4
		c11.8,0,21.1,4.2,27.7,12.6l0.8-10.7h15.2v94.7c0,12.6-3.7,22.5-11.1,29.7c-7.4,7.2-17.4,10.8-30,10.8c-7,0-13.9-1.5-20.6-4.5
		c-6.7-3-11.7-7.1-15.3-12.3l8.6-9.9c7.1,8.7,15.8,13.1,26.1,13.1c8.1,0,14.4-2.2,18.9-6.8c4.5-4.6,6.8-10.9,6.8-19.1v-8.3
		c-6.7,7.7-15.7,11.4-27.1,11.4c-11.3,0-20.6-4.6-27.5-13.7C1396.6,441,1393.2,428.5,1393.2,412.7 M1409.8,414.6
		c0,10.9,2.2,19.5,6.7,25.7c4.5,6.3,10.7,9.3,18.8,9.3c10.4,0,18.1-4.8,23.1-14.3v-44.2c-5.1-9.2-12.7-13.9-22.9-13.9
		c-8.1,0-14.4,3.1-18.9,9.4C1412.1,393.1,1409.8,402.3,1409.8,414.6 M1518.1,462h-16.6v-97h16.6V462z M1500.2,339.3
		c0-2.7,0.8-5,2.4-6.9c1.6-1.8,4.2-2.7,7.3-2.7c3.2,0,5.7,0.9,7.4,2.7c1.7,1.8,2.5,4.2,2.5,6.9c0,2.7-0.8,5-2.5,6.8
		c-1.6,1.8-4.2,2.7-7.4,2.7c-3.2,0-5.7-0.9-7.3-2.7C1501,344.3,1500.2,341.9,1500.2,339.3 M1560.3,365l0.5,12.2
		c7.4-9.3,17.1-14,29.1-14c20.6,0,30.9,11.5,31.1,34.7V462h-16.6v-64.2c-0.1-7-1.6-12.2-4.9-15.5c-3.1-3.3-8-5.1-14.7-5.1
		c-5.4,0-10.1,1.4-14.2,4.3c-4.1,2.8-7.2,6.7-9.5,11.3v69.1h-16.6v-97L1560.3,365z M1686.3,463.8c-13.2,0-23.8-4.4-32.1-13
		c-8.2-8.7-12.4-20.2-12.4-34.6v-3c0-9.6,1.8-18.2,5.5-25.7c3.6-7.6,8.8-13.5,15.4-17.7c6.6-4.3,13.8-6.4,21.5-6.4
		c12.7,0,22.4,4.2,29.5,12.5c7,8.3,10.5,20.3,10.5,35.7v6.9h-65.7c0.2,9.5,3,17.3,8.4,23.1c5.4,5.9,12.2,8.8,20.5,8.8
		c5.9,0,10.8-1.2,14.9-3.5c4.1-2.4,7.6-5.6,10.7-9.4l10.1,7.9C1714.7,457.6,1702.5,463.8,1686.3,463.8 M1684.2,376.8
		c-6.7,0-12.4,2.4-16.9,7.4c-4.6,4.9-7.4,11.7-8.4,20.6h48.6v-1.2c-0.5-8.5-2.7-15-6.8-19.6C1696.6,379.1,1691.2,376.8,1684.2,376.8
		 M1783.5,463.8c-13.2,0-23.9-4.4-32.1-13c-8.2-8.7-12.4-20.2-12.4-34.6v-3c0-9.6,1.8-18.2,5.5-25.7c3.6-7.6,8.8-13.5,15.4-17.7
		c6.6-4.3,13.8-6.4,21.5-6.4c12.7,0,22.4,4.2,29.5,12.5c7,8.3,10.5,20.3,10.5,35.7v6.9h-65.7c0.2,9.5,3,17.3,8.4,23.1
		c5.4,5.9,12.2,8.8,20.5,8.8c5.9,0,10.8-1.2,14.9-3.5c4.1-2.4,7.6-5.6,10.6-9.4l10.1,7.9C1812,457.6,1799.8,463.8,1783.5,463.8
		 M1781.5,376.8c-6.7,0-12.3,2.4-16.9,7.4c-4.6,4.9-7.4,11.7-8.4,20.6h48.6v-1.2c-0.5-8.5-2.7-15-6.8-19.6
		C1793.9,379.1,1788.4,376.8,1781.5,376.8 M1887.4,379.8c-2.5-0.4-5.3-0.6-8.1-0.6c-10.9,0-18.2,4.7-22.2,13.9v69h-16.6v-97h16.1
		l0.3,11.1c5.5-8.7,13.2-13,23.2-13c3.2,0,5.7,0.4,7.4,1.2L1887.4,379.8z M1920.7,462h-16.6v-97h16.6V462z M1902.8,339.3
		c0-2.7,0.8-5,2.4-6.9c1.6-1.8,4.2-2.7,7.3-2.7c3.2,0,5.7,0.9,7.4,2.7c1.7,1.8,2.5,4.2,2.5,6.9c0,2.7-0.8,5-2.5,6.8
		c-1.6,1.8-4.2,2.7-7.4,2.7c-3.2,0-5.7-0.9-7.3-2.7C1903.6,344.3,1902.8,341.9,1902.8,339.3 M1962.9,365l0.5,12.2
		c7.4-9.3,17.1-14,29.1-14c20.5,0,30.9,11.5,31,34.7V462h-16.6v-64.2c-0.1-7-1.6-12.2-4.8-15.5c-3.1-3.3-8-5.1-14.7-5.1
		c-5.4,0-10.1,1.4-14.2,4.3c-4.1,2.8-7.2,6.7-9.5,11.3v69.1h-16.6v-97L1962.9,365z M2044.6,412.7c0-15.2,3.4-27.1,10.5-36.1
		c7-8.9,16.2-13.4,27.7-13.4c11.8,0,21.1,4.2,27.7,12.6l0.8-10.7h15.2v94.7c0,12.6-3.7,22.5-11.1,29.7c-7.4,7.2-17.4,10.8-30,10.8
		c-7,0-13.9-1.5-20.6-4.5c-6.7-3-11.7-7.1-15.4-12.3l8.6-9.9c7.1,8.7,15.8,13.1,26,13.1c8.1,0,14.4-2.2,18.9-6.8
		c4.5-4.6,6.8-10.9,6.8-19.1v-8.3c-6.7,7.7-15.7,11.4-27.1,11.4c-11.3,0-20.6-4.6-27.5-13.7C2048.2,441,2044.6,428.5,2044.6,412.7
		 M2061.3,414.6c0,10.9,2.2,19.5,6.7,25.7c4.5,6.3,10.7,9.3,18.8,9.3c10.4,0,18.1-4.8,23.1-14.3v-44.2c-5.1-9.2-12.7-13.9-22.9-13.9
		c-8.1,0-14.4,3.1-18.9,9.4C2063.6,393.1,2061.3,402.3,2061.3,414.6"/>
</g>
</svg>
